<?xml version="1.0" encoding="UTF-8" ?>
<!DOCTYPE svg PUBLIC "-//W3C//DTD SVG 1.1//EN" "http://www.w3.org/Graphics/SVG/1.1/DTD/svg11.dtd">
<svg width="152pt" height="75pt" viewBox="0 0 152 75" version="1.1" xmlns="http://www.w3.org/2000/svg">
<g id="#ffffffff">
<path fill="#ffffff" opacity="1.00" d=" M 17.34 2.02 C 19.10 1.30 20.86 -0.58 22.90 0.35 C 32.78 6.08 42.68 11.78 52.51 17.59 C 54.57 18.63 53.74 21.19 53.97 23.03 C 41.61 16.32 29.67 8.83 17.34 2.02 Z" />
<path fill="#ffffff" opacity="1.00" d=" M 8.84 6.97 C 10.25 6.20 11.65 5.43 13.04 4.64 C 26.70 12.48 40.31 20.40 53.90 28.35 C 53.91 29.92 53.90 31.50 53.88 33.08 C 38.84 24.43 23.86 15.67 8.84 6.97 Z" />
<path fill="#ffffff" opacity="1.00" d=" M 0.00 13.71 C 0.58 11.61 2.69 10.69 4.22 9.40 C 20.72 19.05 37.21 28.73 53.85 38.13 C 53.88 39.84 53.90 41.54 53.91 43.25 C 43.23 49.82 32.25 55.89 21.59 62.51 C 21.65 66.67 21.68 70.84 21.54 75.00 L 20.73 75.00 C 19.88 74.60 18.18 73.80 17.33 73.40 C 17.39 68.93 17.37 64.46 17.37 60.00 C 28.27 53.71 39.06 47.23 49.93 40.89 C 48.37 40.14 47.00 38.69 45.24 38.50 C 34.48 44.57 24.03 51.18 13.21 57.13 C 13.13 61.68 13.16 66.22 13.18 70.77 C 11.73 69.91 10.27 69.04 8.82 68.18 C 8.83 63.81 8.83 59.43 8.82 55.06 C 19.39 48.76 30.04 42.60 40.60 36.29 C 41.19 34.49 37.94 34.37 36.94 33.33 C 26.01 39.64 15.17 46.09 4.32 52.53 C 4.34 57.01 4.38 61.50 4.29 65.98 C 2.73 64.70 0.80 63.67 0.00 61.70 L 0.00 13.71 M 4.40 47.60 C 5.89 46.76 7.36 45.89 8.84 45.03 C 8.83 35.65 8.81 26.27 8.85 16.89 C 7.35 16.08 5.86 15.25 4.36 14.44 C 4.39 25.49 4.31 36.54 4.40 47.60 M 13.13 19.45 C 13.19 27.09 13.16 34.73 13.15 42.37 C 14.54 41.57 15.94 40.80 17.36 40.04 C 17.38 34.01 17.36 27.98 17.37 21.95 C 15.96 21.11 14.55 20.28 13.13 19.45 M 21.69 24.33 C 21.63 28.75 21.65 33.17 21.67 37.58 C 25.28 35.18 29.09 33.12 32.80 30.88 C 29.12 28.66 25.35 26.59 21.69 24.33 Z" />
<path fill="#ffffff" opacity="1.00" d=" M 74.48 18.68 C 79.69 17.27 87.07 19.17 88.18 25.23 C 88.68 29.71 88.77 34.33 88.11 38.80 C 86.69 45.20 78.57 46.63 73.21 44.73 C 69.65 43.76 67.38 40.20 67.31 36.61 C 67.28 32.77 66.93 28.86 67.62 25.07 C 68.26 21.71 71.19 19.24 74.48 18.68 M 73.56 23.79 C 70.62 27.11 72.50 32.12 72.02 36.15 C 71.69 41.54 79.45 42.77 82.63 39.55 C 84.36 37.42 83.58 34.49 83.77 31.98 C 83.56 29.43 84.38 26.48 82.69 24.28 C 80.33 21.95 76.21 21.92 73.56 23.79 Z" />
<path fill="#ffffff" opacity="1.00" d=" M 102.85 18.85 C 104.35 18.80 105.84 18.78 107.33 18.77 C 107.69 26.09 107.41 33.42 107.50 40.75 C 111.40 40.75 115.31 40.71 119.22 40.81 C 119.22 42.19 119.20 43.57 119.18 44.94 C 113.74 45.02 108.31 45.08 102.88 44.90 C 102.65 36.22 102.70 27.53 102.85 18.85 Z" />
<path fill="#ffffff" opacity="1.00" d=" M 128.39 18.82 C 130.25 18.78 132.12 18.78 134.00 18.81 C 136.19 22.45 138.29 26.15 140.42 29.83 C 142.59 26.16 144.69 22.45 146.87 18.79 C 148.58 18.77 150.29 18.76 152.00 18.76 L 152.00 19.50 C 149.11 24.68 145.49 29.45 142.90 34.77 C 142.57 38.20 142.87 41.66 142.52 45.09 C 141.04 45.01 139.56 44.91 138.08 44.81 C 137.54 40.45 139.28 35.44 136.29 31.71 C 133.63 27.43 130.85 23.22 128.39 18.82 Z" />
</g>
</svg>
