<?xml version="1.0" encoding="UTF-8" ?>
<!DOCTYPE svg PUBLIC "-//W3C//DTD SVG 1.1//EN" "http://www.w3.org/Graphics/SVG/1.1/DTD/svg11.dtd">
<svg width="75pt" height="75pt" viewBox="0 0 75 75" version="1.1" xmlns="http://www.w3.org/2000/svg">
<g id="#ffffffff">
<path fill="#ffffff" opacity="1.00" d=" M 27.38 2.06 C 28.56 1.39 29.71 0.70 30.94 0.14 C 32.87 -0.23 34.34 1.26 35.91 2.09 C 43.65 6.56 51.37 11.07 59.09 15.56 C 60.73 16.58 62.81 17.26 63.83 19.00 C 63.93 20.33 63.97 21.66 63.95 23.00 C 51.59 16.34 39.70 8.82 27.38 2.06 Z" />
<path fill="#ffffff" opacity="1.00" d=" M 18.85 6.97 C 20.25 6.20 21.65 5.43 23.04 4.63 C 36.69 12.46 50.27 20.41 63.88 28.30 C 63.91 29.89 63.90 31.48 63.85 33.07 C 48.83 24.40 33.84 15.68 18.85 6.97 Z" />
<path fill="#ffffff" opacity="1.00" d=" M 10.43 12.47 C 11.48 11.19 12.99 10.42 14.30 9.44 C 30.77 19.06 47.20 28.77 63.84 38.09 C 63.87 39.80 63.89 41.52 63.92 43.23 C 53.25 49.84 42.22 55.86 31.59 62.53 C 31.63 66.69 31.73 70.85 31.51 75.00 L 30.73 75.00 C 29.88 74.59 28.17 73.76 27.32 73.34 C 27.41 68.89 27.35 64.43 27.37 59.98 C 38.28 53.73 49.04 47.21 59.92 40.91 C 58.39 39.97 56.84 39.06 55.25 38.25 C 44.72 44.75 34.03 51.04 23.23 57.09 C 23.10 61.65 23.17 66.21 23.18 70.77 C 21.73 69.91 20.27 69.04 18.82 68.18 C 18.83 63.81 18.84 59.45 18.81 55.08 C 29.65 48.65 40.50 42.21 51.41 35.90 C 49.94 35.02 48.44 34.17 46.95 33.33 C 36.02 39.64 25.16 46.09 14.31 52.54 C 14.35 56.99 14.38 61.45 14.30 65.90 C 12.74 64.53 9.87 63.63 10.14 61.07 C 10.09 46.38 10.18 31.68 10.10 16.98 C 10.18 15.48 9.92 13.91 10.43 12.47 M 14.37 47.54 C 15.90 46.77 17.38 45.92 18.84 45.02 C 18.83 35.65 18.80 26.27 18.85 16.90 C 17.36 16.08 15.87 15.26 14.38 14.44 C 14.34 25.47 14.37 36.50 14.37 47.54 M 23.12 19.45 C 23.20 27.09 23.15 34.74 23.15 42.39 C 24.52 41.57 25.92 40.80 27.34 40.06 C 27.40 34.03 27.35 27.99 27.37 21.95 C 25.96 21.11 24.54 20.28 23.12 19.45 M 31.71 24.35 C 31.62 28.77 31.62 33.18 31.71 37.59 C 35.28 35.15 39.10 33.10 42.83 30.92 C 39.17 28.65 35.37 26.62 31.71 24.35 Z" />
</g>
</svg>
