<?xml version="1.0" encoding="UTF-8" ?>
<!DOCTYPE svg PUBLIC "-//W3C//DTD SVG 1.1//EN" "http://www.w3.org/Graphics/SVG/1.1/DTD/svg11.dtd">
<svg width="75pt" height="75pt" viewBox="0 0 75 75" version="1.1" xmlns="http://www.w3.org/2000/svg">
<g id="#f21d87ff">
<path fill="#f21d87" opacity="1.00" d=" M 27.40 2.04 C 29.14 1.21 30.85 -0.55 32.91 0.32 C 42.77 6.10 52.70 11.79 62.53 17.60 C 64.58 18.64 63.72 21.18 63.93 22.99 C 51.61 16.28 39.66 8.87 27.40 2.04 Z" />
</g>
<g id="#ee1e89ff">
<path fill="#ee1e89" opacity="1.00" d=" M 18.86 6.98 C 20.25 6.19 21.65 5.42 23.04 4.63 C 32.52 10.05 41.96 15.54 51.36 21.09 C 49.52 21.57 47.67 22.05 45.83 22.55 C 36.78 17.46 27.84 12.18 18.86 6.98 Z" />
</g>
<g id="#e22091ff">
<path fill="#e22091" opacity="1.00" d=" M 10.14 13.96 C 10.01 11.55 12.82 10.76 14.30 9.44 C 22.05 14.10 29.93 18.54 37.73 23.12 C 34.29 23.48 30.83 23.70 27.37 23.86 C 27.37 23.38 27.36 22.42 27.36 21.94 C 25.96 21.11 24.55 20.28 23.14 19.46 C 23.14 20.07 23.15 21.28 23.15 21.89 C 21.71 21.98 20.27 22.06 18.83 22.15 C 18.83 20.39 18.84 18.64 18.85 16.89 C 17.36 16.09 15.87 15.28 14.37 14.49 C 14.35 19.23 14.36 23.97 14.36 28.71 C 12.95 28.50 11.54 28.29 10.13 28.07 C 10.20 23.37 10.04 18.66 10.14 13.96 Z" />
</g>
<g id="#d2239cff">
<path fill="#d2239c" opacity="1.00" d=" M 51.36 21.09 C 55.59 23.42 59.75 25.88 63.89 28.35 C 63.89 29.92 63.89 31.48 63.88 33.04 C 57.83 29.61 51.77 26.17 45.83 22.55 C 47.67 22.05 49.52 21.57 51.36 21.09 Z" />
</g>
<g id="#d2239dff">
<path fill="#d2239d" opacity="1.00" d=" M 18.83 22.15 C 20.27 22.06 21.71 21.98 23.15 21.89 C 23.16 24.65 23.16 27.40 23.16 30.16 C 21.72 30.09 20.27 30.01 18.83 29.94 C 18.83 27.34 18.83 24.74 18.83 22.15 Z" />
</g>
<g id="#cd24a0ff">
<path fill="#cd24a0" opacity="1.00" d=" M 37.73 23.12 C 43.04 26.17 48.31 29.27 53.61 32.32 C 49.95 32.83 46.15 32.69 42.83 30.88 C 39.11 28.72 35.39 26.56 31.70 24.36 C 31.65 26.97 31.64 29.58 31.65 32.19 C 30.58 32.19 28.43 32.20 27.36 32.20 C 27.38 29.42 27.37 26.64 27.37 23.86 C 30.83 23.70 34.29 23.48 37.73 23.12 Z" />
</g>
<g id="#be26a9ff">
<path fill="#be26a9" opacity="1.00" d=" M 10.13 28.07 C 11.54 28.29 12.95 28.50 14.36 28.71 C 14.37 31.71 14.37 34.71 14.35 37.70 C 11.83 38.67 10.51 41.04 10.24 43.62 L 10.14 44.43 C 10.15 38.98 10.11 33.53 10.13 28.07 Z" />
</g>
<g id="#bf26a9ff">
<path fill="#bf26a9" opacity="1.00" d=" M 18.83 29.94 C 20.27 30.01 21.72 30.09 23.16 30.16 C 23.16 32.46 23.16 34.77 23.16 37.07 C 21.71 37.43 20.27 37.79 18.83 38.15 C 18.83 35.41 18.83 32.68 18.83 29.94 Z" />
</g>
<g id="#b827adff">
<path fill="#b827ad" opacity="1.00" d=" M 27.36 32.20 C 28.43 32.20 30.58 32.19 31.65 32.19 C 31.66 33.99 31.66 35.78 31.68 37.58 C 35.31 35.20 39.09 33.08 42.83 30.88 C 46.15 32.69 49.95 32.83 53.61 32.32 C 57.00 34.29 60.37 36.30 63.83 38.14 C 63.53 38.69 62.92 39.79 62.61 40.35 C 61.96 40.51 60.64 40.83 59.98 40.99 C 58.63 40.12 57.28 39.22 55.86 38.47 C 53.79 38.83 52.14 40.45 50.27 41.36 C 48.29 40.91 46.31 40.46 44.33 40.01 C 46.67 38.60 49.04 37.24 51.42 35.89 C 49.93 35.03 48.44 34.18 46.95 33.33 C 43.41 35.29 39.95 37.37 36.47 39.44 C 33.47 39.32 30.45 39.39 27.46 39.75 C 27.38 37.23 27.35 34.72 27.36 32.20 Z" />
</g>
<g id="#a92ab8ff">
<path fill="#a92ab8" opacity="1.00" d=" M 18.83 38.15 C 20.27 37.79 21.71 37.43 23.16 37.07 C 23.16 38.85 23.16 40.63 23.17 42.42 C 24.61 41.55 26.06 40.68 27.46 39.75 C 30.45 39.39 33.47 39.32 36.47 39.44 C 33.10 41.45 29.68 43.39 26.32 45.43 C 23.82 45.32 21.33 45.20 18.84 45.05 C 18.83 42.75 18.83 40.45 18.83 38.15 Z" />
</g>
<g id="#9a2cc3ff">
<path fill="#9a2cc3" opacity="1.00" d=" M 10.24 43.62 C 10.51 41.04 11.83 38.67 14.35 37.70 C 14.36 40.99 14.36 44.28 14.39 47.57 C 15.88 46.74 17.36 45.90 18.84 45.05 C 21.33 45.20 23.82 45.32 26.32 45.43 C 22.32 47.84 18.21 50.06 14.28 52.60 C 13.48 52.57 11.88 52.52 11.08 52.50 C 10.47 49.58 10.08 46.61 10.24 43.62 Z" />
</g>
<g id="#9e2bbfff">
<path fill="#9e2bbf" opacity="1.00" d=" M 63.83 38.14 C 63.86 39.83 63.90 41.53 63.93 43.22 C 57.98 46.96 51.84 50.39 45.81 54.00 C 44.05 53.43 42.30 52.86 40.55 52.29 C 47.04 48.55 53.39 44.55 59.98 40.99 C 60.64 40.83 61.96 40.51 62.61 40.35 C 62.92 39.79 63.53 38.69 63.83 38.14 Z" />
</g>
<g id="#a52abbff">
<path fill="#a52abb" opacity="1.00" d=" M 32.39 47.04 C 36.38 44.71 40.35 42.35 44.33 40.01 C 46.31 40.46 48.29 40.91 50.27 41.36 C 46.25 43.71 42.25 46.10 38.22 48.46 C 36.28 47.98 34.34 47.51 32.39 47.04 Z" />
</g>
<g id="#8430d1ff">
<path fill="#8430d1" opacity="1.00" d=" M 10.14 44.43 L 10.24 43.62 C 10.08 46.61 10.47 49.58 11.08 52.50 C 11.88 52.52 13.48 52.57 14.28 52.60 C 14.37 57.03 14.37 61.46 14.30 65.89 C 12.75 64.53 9.90 63.64 10.15 61.11 C 10.08 55.55 10.14 49.99 10.14 44.43 Z" />
</g>
<g id="#932ec8ff">
<path fill="#932ec8" opacity="1.00" d=" M 18.87 55.10 C 23.29 52.27 27.91 49.76 32.39 47.04 C 34.34 47.51 36.28 47.98 38.22 48.46 C 33.20 51.28 28.39 54.48 23.23 57.06 C 21.77 56.64 20.30 56.22 18.83 55.81 L 18.87 55.10 Z" />
</g>
<g id="#8730cfff">
<path fill="#8730cf" opacity="1.00" d=" M 27.39 59.96 C 31.84 57.52 36.14 54.82 40.55 52.29 C 42.30 52.86 44.05 53.43 45.81 54.00 C 41.06 56.84 36.22 59.52 31.59 62.54 C 30.19 61.68 28.79 60.81 27.39 59.96 Z" />
</g>
<g id="#7d32d5ff">
<path fill="#7d32d5" opacity="1.00" d=" M 18.83 55.81 C 20.30 56.22 21.77 56.64 23.23 57.06 C 23.10 61.63 23.17 66.20 23.17 70.77 C 21.72 69.90 20.26 69.04 18.81 68.17 C 18.86 64.05 18.79 59.93 18.83 55.81 Z" />
</g>
<g id="#7533dbff">
<path fill="#7533db" opacity="1.00" d=" M 27.33 73.34 C 27.40 68.88 27.34 64.42 27.39 59.96 C 28.79 60.81 30.19 61.68 31.59 62.54 C 31.66 66.69 31.67 70.85 31.54 75.00 L 30.62 75.00 C 29.80 74.59 28.15 73.76 27.33 73.34 Z" />
</g>
</svg>
